<svg xmlns="http://www.w3.org/2000/svg"
     xmlns:xlink="http://www.w3.org/1999/xlink"
     viewBox="0 0 19 19">
    <defs>
        <style>
            .cls-1{fill:#fff;stroke:#999;stroke-miterlimit:10;}
        </style>
    </defs>
    <title>buttonsAsset 6</title>
    <g id="Layer_2" data-name="Layer 2">
        <g id="Details_panel_spec" data-name="Details panel spec">
            <circle class="cls-1" cx="9.5" cy="9.5" r="9"/>
            <path
                d="M7.85,7.43,5.21,10.06,7.85,12.7a.22.22,0,0,1,.06.15.27.27,0,0,1-.06.16l-.34.33a.23.23,0,0,1-.15.07.24.24,0,0,1-.16-.07L4.08,10.22A.23.23,0,0,1,4,10.06a.22.22,0,0,1,.06-.15L7.2,6.79a.24.24,0,0,1,.16-.07.23.23,0,0,1,.15.07l.34.33a.23.23,0,0,1,.06.16A.22.22,0,0,1,7.85,7.43Z"/>
            <path
                d="M14.92,10.22,11.8,13.34a.24.24,0,0,1-.16.07.23.23,0,0,1-.15-.07L11.15,13a.25.25,0,0,1-.06-.16.22.22,0,0,1,.06-.15l2.64-2.64L11.15,7.43a.22.22,0,0,1-.06-.15.23.23,0,0,1,.06-.16l.34-.33a.23.23,0,0,1,.15-.07.24.24,0,0,1,.16.07l3.12,3.12a.22.22,0,0,1,.06.15A.23.23,0,0,1,14.92,10.22Z"/>
        </g>
    </g>
</svg>
