<svg id="background" xmlns="http://www.w3.org/2000/svg" viewBox="0 0 19.293 26.289"><defs><style>.cls-1{fill:#3daa00;}</style></defs><title>bts_icon_online</title><path class="cls-1" d="M9.646.144A9.647,9.647,0,0,0,2.828,16.615.83.83,0,0,0,4,15.441a7.987,7.987,0,1,1,13.632-5.65,7.929,7.929,0,0,1-2.339,5.647.83.83,0,0,0,1.174,1.173A9.646,9.646,0,0,0,9.646.144Z"/><path class="cls-1" d="M12.711,13.977a.829.829,0,0,0,1.173,0,5.992,5.992,0,1,0-8.471,0,.83.83,0,0,0,1.172-1.176,4.332,4.332,0,1,1,6.126,0A.829.829,0,0,0,12.711,13.977Z"/><circle class="cls-1" cx="9.646" cy="9.791" r="1.653"/><path class="cls-1" d="M10.429,13.977c-.005-.014-.017-.023-.023-.037a.817.817,0,0,0-.088-.147.839.839,0,0,0-.089-.121.87.87,0,0,0-.123-.091.806.806,0,0,0-.144-.086c-.014-.006-.024-.018-.039-.023a.824.824,0,0,0-.111-.016.607.607,0,0,0-.331,0,.863.863,0,0,0-.112.016c-.015.005-.025.017-.039.023a1.6,1.6,0,0,0-.267.178.734.734,0,0,0-.087.118.765.765,0,0,0-.09.15c-.006.013-.017.022-.022.036L4.946,25.038a.831.831,0,0,0,.5,1.059.846.846,0,0,0,.278.047.831.831,0,0,0,.782-.553l3.135-8.852,3.136,8.852a.832.832,0,0,0,.783.553.844.844,0,0,0,.277-.047.83.83,0,0,0,.5-1.059Z"/></svg>