<?xml version="1.0" encoding="utf-8"?>
<!-- Generator: Adobe Illustrator 23.1.0, SVG Export Plug-In . SVG Version: 6.00 Build 0)  -->
<svg version="1.1" id="Layer_1" xmlns="http://www.w3.org/2000/svg" xmlns:xlink="http://www.w3.org/1999/xlink" x="0px" y="0px"
	 viewBox="0 0 999.6 1182.1" style="enable-background:new 0 0 999.6 1182.1;" xml:space="preserve">
<g>
	<path d="M519.3,0c4.8,0.5,9.6,1.1,14.4,1.5c48.4,3.8,94.4,16.3,138.4,36.8c36.6,17.1,70,39.1,100,66.1
		c44.4,39.9,78.7,87.2,102.6,141.9c12.6,28.8,21.7,58.7,27.4,89.6c5.9,31.7,7.5,63.6,5.9,95.8c-0.6,12.3-2.3,24.6-3.5,36.9
		c-0.2,1.9,0.1,3.1,2.1,4.1c21.9,10.4,43.7,21,65.5,31.6c17.8,8.7,27.2,23,27.3,42.9c0.1,96.7,0.1,193.5,0.1,290.2
		c0,38.7,0.1,77.5,0,116.2c0,15.7-5.9,28.9-18.8,38c-5.8,4.1-12.7,6.8-19.4,9.4c-147.6,59.1-295.2,118.2-442.7,177.3
		c-12.8,5.1-25.3,5-38.1-0.1c-83.2-33.4-166.5-66.7-249.8-100c-67.5-27-134.9-54-202.4-81C11.5,990.4,0,973.8,0,955.5
		C0,818.8,0,682,0,545.3c0-19.7,12.6-36.5,31.2-43.1c6.4-2.3,12.5-5.6,18.6-8.6c14.2-6.9,28.4-13.9,42.6-20.7c2.1-1,2.7-1.9,2.4-4.5
		c-2.9-24.4-4.6-48.9-3.6-73.6c0.8-19.9,2.7-39.6,6.3-59.1c6-33.1,16-64.9,29.9-95.5c15.1-33.1,34.2-63.6,57.3-91.6
		C218.3,108.4,258,75.4,304,50.1C342.9,28.7,384.2,14,427.8,6.4c15.9-2.8,32.1-3.8,48.2-5.6c1.5-0.2,2.9-0.5,4.4-0.8
		C493.4,0,506.4,0,519.3,0z M498.7,91c-21.8,0.1-44.5,2.3-67,7.2c-32.3,7-62.8,18.8-91.4,35.3c-34.2,19.8-63.6,45.1-88.4,75.8
		c-17.5,21.7-31.9,45.3-43.1,70.9c-13.9,31.6-22.3,64.5-25.6,98.9c-2,21.4-1.8,42.6,1.2,63.9c3,21.5,7.4,42.6,13.2,63.5
		c5.7,20.7,12.7,40.8,24.8,58.8c0.7,1,1.9,2,3,2.5C315.7,603.9,406,640,496.3,676.2c2.4,1,4.3,1,6.7,0.1
		c50.3-20.1,100.6-40.2,150.9-60.3c41.4-16.5,82.8-33,124.2-49.6c1.3-0.5,2.9-1.3,3.4-2.5c5.1-10.1,10.7-20,14.8-30.5
		c8.6-22.1,13.6-45.2,17.1-68.7c4.1-28.1,5.7-56.3,3-84.7c-2.1-22-6.1-43.6-12.6-64.7c-12.9-41.8-33.4-79.5-61.8-112.8
		c-26.8-31.4-58.4-56.7-95-75.8C600.8,102.8,551.8,91.1,498.7,91z M499.7,773.8c-6.6-1.6-13-2.4-18.8-4.7
		c-57.4-22.7-114.7-45.7-172-68.6c-66.1-26.4-132.3-52.7-198.4-79c-6.3-2.5-12.6-5-19.2-7.6c-0.1,1.7-0.2,2.8-0.2,3.9
		c0,100.6,0,201.2-0.1,301.8c0,2.8,0.9,4.1,3.6,5.1c31.7,12.5,63.4,25.2,95.1,37.9c97.7,39.1,195.4,78.1,293.2,117.2
		c5.5,2.2,11,4.3,16.9,6.6C499.7,981.7,499.7,877.5,499.7,773.8z"/>
	<path d="M669.6,398.7c0,94-77.1,171.1-172.4,169.8c-91.8-1.3-168.1-76.2-167.4-171.5c0.7-94.1,78-170,173-168.4
		C594.6,230.1,669.7,305.1,669.6,398.7z M568.7,398.4c-0.1-38.5-31.1-69-70.1-69c-36.7,0-67.8,31.7-67.8,69.1
		c0,37.9,31.3,69.1,69.3,69.1C537.7,467.6,568.7,436.2,568.7,398.4z"/>
</g>
</svg>
