<?xml version="1.0" encoding="utf-8"?>
<!-- Generator: Adobe Illustrator 23.0.6, SVG Export Plug-In . SVG Version: 6.00 Build 0)  -->
<svg version="1.1" id="Layer_1" xmlns="http://www.w3.org/2000/svg" xmlns:xlink="http://www.w3.org/1999/xlink" x="0px" y="0px"
	 viewBox="0 0 17.1 12" style="enable-background:new 0 0 17.1 12;" xml:space="preserve">
<style type="text/css">
	.st0{fill:#1A1A1A;}
	.st1{clip-path:url(#SVGID_2_);}
	.st2{fill:#050706;}
</style>
<g id="Group_589" transform="translate(-221.079 -357.437)">
	<path id="Path_244" class="st0" d="M228.8,366.4h-6c-0.3,0-0.6-0.3-0.6-0.6v-6.6c0-0.3,0.3-0.6,0.6-0.6h11.4c0.3,0,0.6,0.3,0.6,0.6
		v1.1c0.4,0.1,0.8,0.2,1.2,0.3v-1.4c0-1-0.8-1.7-1.7-1.7h-11.4c-1,0-1.7,0.8-1.7,1.7v6.6c0,1,0.8,1.7,1.7,1.7h6.4
		C229.1,367.2,228.9,366.8,228.8,366.4z"/>
	<g id="Group_588">
		<g>
			<defs>
				<rect id="SVGID_1_" x="230.2" y="361.3" width="7.9" height="8.2"/>
			</defs>
			<clipPath id="SVGID_2_">
				<use xlink:href="#SVGID_1_"  style="overflow:visible;"/>
			</clipPath>
			<g id="Group_587" class="st1">
				<g id="ic_settings_applications_24px_1_">
					<path id="ic_settings_applications_24px-2_1_" class="st2" d="M234.2,364.2c-0.6,0-1.2,0.5-1.2,1.2s0.5,1.2,1.2,1.2
						c0.6,0,1.2-0.5,1.2-1.2S234.8,364.2,234.2,364.2z M237.3,365.4c0,0.1,0,0.3,0,0.4l0.9,0.7c0.1,0.1,0.1,0.2,0,0.3l-0.8,1.4
						c-0.1,0.1-0.2,0.1-0.3,0.1l-1-0.4c-0.2,0.2-0.4,0.3-0.7,0.4l-0.2,1.1c0,0.1-0.1,0.2-0.2,0.2h-1.6c-0.1,0-0.2-0.1-0.2-0.2
						l-0.2-1.1c-0.2-0.1-0.5-0.2-0.7-0.4l-1,0.4c-0.1,0-0.2,0-0.3-0.1l-0.8-1.4c-0.1-0.1,0-0.2,0-0.3l0.9-0.7c0-0.1,0-0.3,0-0.4
						c0-0.1,0-0.3,0-0.4l-0.9-0.7c-0.1-0.1-0.1-0.2,0-0.3l0.8-1.4c0.1-0.1,0.2-0.1,0.3-0.1l1,0.4c0.2-0.2,0.4-0.3,0.7-0.4l0.2-1.1
						c0-0.1,0.1-0.2,0.2-0.2h1.6c0.1,0,0.2,0.1,0.2,0.2l0.2,1.1c0.2,0.1,0.5,0.2,0.7,0.4l1-0.4c0.1,0,0.2,0,0.3,0.1l0.8,1.4
						c0.1,0.1,0,0.2,0,0.3l-0.9,0.7C237.3,365.1,237.3,365.2,237.3,365.4L237.3,365.4z"/>
				</g>
			</g>
		</g>
	</g>
</g>
</svg>
